<?xml version="1.0" encoding="iso-8859-1"?>
<svg height="800px" width="800px" version="1.1" fill='none' id="Capa_1" xmlns="http://www.w3.org/2000/svg" xmlns:xlink="http://www.w3.org/1999/xlink" 
	 viewBox="0 0 54.8 54.8" xml:space="preserve">
<g>
	<g>
		<path fill="currentColor" d="M34.716,12.139h-1.054c-0.337,0-0.668,0.138-0.906,0.378c-0.231,0.231-0.356,0.533-0.353,0.801
			l-2.07,15.318c-0.078,0.572,0.196,1.246,0.657,1.604c0,0,0.849,0.636,1.282,0.938l0.105,0.045l0.02,11.373
			c0,0.696,0.566,1.265,1.265,1.265h1.054c0.697,0,1.266-0.567,1.266-1.265V13.402C35.979,12.706,35.413,12.139,34.716,12.139z
			 M31.761,29.238c-0.097-0.076-0.191-0.311-0.177-0.432l1.994-14.776c0.047-0.347,0.319-0.628,0.61-0.628s0.526,0.283,0.526,0.633
			v20.664h-1.066l-0.007-3.761c0-0.181-0.1-0.38-0.244-0.486L31.761,29.238z M34.188,42.595c-0.291-0.002-0.527-0.283-0.527-0.633
			l-0.01-5.264h1.063v5.264C34.715,42.313,34.479,42.595,34.188,42.595z"/>
		<path fill="currentColor" d="M25.355,13.402c-0.685,0-1.245,0.567-1.245,1.265v5.547c0,0.35-0.194,0.632-0.434,0.632
			c-0.239,0-0.434-0.282-0.434-0.631c-0.001-1.585-0.001-5.599-0.001-5.599c0-0.726-0.736-1.214-1.463-1.214
			c-0.664,0-1.426,0.566-1.426,1.292v5.533c0,0.35-0.194,0.632-0.434,0.632c-0.239,0-0.433-0.282-0.433-0.632v-5.56
			c0-0.697-0.55-1.265-1.226-1.265c-0.394,0-1.857,0.317-1.857,1.265v6.93c0,0.35,0.077,1.066,0.364,1.534
			c0.424,0.688,1.759,1.694,3.759,2.045c-0.22,0.227-0.356,0.535-0.356,0.874v16.545c0,0.696,0.567,1.265,1.265,1.265h1.054
			c0.698,0,1.266-0.567,1.266-1.265v-5.896h0.002v-2h-0.002V26.05c0-0.341-0.137-0.649-0.357-0.877
			c1.791-0.326,3.118-1.212,3.551-2.064c0.269-0.529,0.284-1.353,0.284-1.512v-6.93C27.233,13.72,25.753,13.402,25.355,13.402z
			 M22.492,41.963c0,0.35-0.236,0.633-0.527,0.633s-0.528-0.283-0.528-0.633v-5.264h1.055V41.963z M21.437,34.699v-8.017
			c0-0.35,0.236-0.633,0.527-0.633s0.526,0.283,0.526,0.633l0.001,8.017H21.437z M25.968,21.596c0,0.36-0.064,0.781-0.146,0.939
			c-0.268,0.526-1.675,1.511-3.857,1.511c-2.225,0-3.78-1.028-4.119-1.579c-0.092-0.15-0.177-0.566-0.177-0.871V14.85
			c0.16-0.087,0.457-0.182,0.554-0.184v6.179c0,0.697,0.566,1.274,1.243,1.273h0.878c0.697,0,1.265-0.549,1.265-1.246v-6.117
			c0.041-0.041,0.133-0.087,0.21-0.089c0.053,0,0.117,0.021,0.158,0.044v6.083c0,0.909,0.557,1.316,1.107,1.316h1.027
			c0.697,0,1.265-0.567,1.265-1.265l-0.02-6.179c0.129,0.001,0.447,0.098,0.612,0.187V21.596z"/>
		<path fill="currentColor" d="M27.4,0C12.292,0,0,12.292,0,27.4s12.292,27.4,27.4,27.4s27.4-12.292,27.4-27.4S42.508,0,27.4,0z
			 M27.4,52.801c-14.005,0-25.4-11.395-25.4-25.4s11.395-25.4,25.4-25.4s25.4,11.395,25.4,25.4S41.405,52.801,27.4,52.801z"/>
		<path fill="currentColor" d="M27.399,5.324c-12.173,0-22.077,9.904-22.077,22.077c0,12.174,9.903,22.077,22.077,22.077
			s22.077-9.903,22.077-22.077C49.476,15.228,39.572,5.324,27.399,5.324z M27.399,48.478c-11.622,0-21.077-9.455-21.077-21.077
			S15.777,6.324,27.399,6.324s21.077,9.455,21.077,21.077S39.02,48.478,27.399,48.478z"/>
	</g>
</g>
</svg>